<?xml version="1.0" encoding="utf-8"?>
<!-- Generator: Adobe Illustrator 26.3.1, SVG Export Plug-In . SVG Version: 6.00 Build 0)  -->
<svg version="1.1" id="레이어_1" xmlns="http://www.w3.org/2000/svg" xmlns:xlink="http://www.w3.org/1999/xlink" x="0px"
	 y="0px" viewBox="0 0 168 73" style="enable-background:new 0 0 168 73;" xml:space="preserve">
<style type="text/css">
	.st0{fill:#FFFFFF;}
</style>
<g>
	<g>
		<path class="st0" d="M9.65,66.85H8l-3-4.24c-0.17-0.25-0.3-0.43-0.36-0.56H4.62c0.03,0.24,0.04,0.6,0.04,1.09v3.71H3.11V60.1h1.76
			l2.89,4.11c0.13,0.19,0.25,0.37,0.36,0.55h0.02C8.12,64.6,8.1,64.3,8.1,63.83V60.1h1.55V66.85z"/>
		<path class="st0" d="M20.24,66.85h-1.79l-0.52-1.5h-2.59l-0.51,1.5h-1.77l2.65-6.75h1.94L20.24,66.85z M17.56,64.18l-0.78-2.27
			c-0.06-0.17-0.1-0.37-0.12-0.61h-0.04c-0.02,0.2-0.06,0.39-0.13,0.59l-0.79,2.29H17.56z"/>
		<path class="st0" d="M29.82,61.34h-2.07v5.51H26.1v-5.51h-2.07V60.1h5.78V61.34z"/>
		<path class="st0" d="M40.2,63.93c0,2.03-1.02,3.04-3.05,3.04c-1.97,0-2.96-0.99-2.96-2.97v-3.9h1.64v3.92
			c0,1.09,0.46,1.64,1.38,1.64c0.9,0,1.35-0.53,1.35-1.58V60.1h1.64V63.93z"/>
		<path class="st0" d="M50.52,66.85h-1.88l-1.13-1.74c-0.08-0.13-0.17-0.25-0.24-0.35c-0.08-0.1-0.16-0.19-0.24-0.27
			c-0.08-0.07-0.16-0.13-0.25-0.17c-0.08-0.04-0.18-0.06-0.28-0.06h-0.44v2.58h-1.64V60.1h2.6c1.76,0,2.65,0.61,2.65,1.84
			c0,0.24-0.04,0.45-0.12,0.65c-0.08,0.2-0.19,0.38-0.33,0.54c-0.14,0.16-0.31,0.3-0.51,0.41c-0.2,0.12-0.43,0.21-0.67,0.27v0.02
			c0.11,0.03,0.21,0.08,0.32,0.15c0.1,0.07,0.2,0.15,0.29,0.25c0.09,0.09,0.18,0.2,0.27,0.3c0.09,0.11,0.16,0.21,0.23,0.32
			L50.52,66.85z M46.06,61.24v1.88h0.71c0.35,0,0.63-0.09,0.85-0.28c0.22-0.19,0.33-0.43,0.33-0.71c0-0.59-0.38-0.89-1.14-0.89
			H46.06z"/>
		<path class="st0" d="M61.33,66.85h-1.79l-0.52-1.5h-2.59l-0.51,1.5h-1.77l2.65-6.75h1.94L61.33,66.85z M58.65,64.18l-0.78-2.27
			c-0.06-0.17-0.1-0.37-0.12-0.61h-0.04c-0.02,0.2-0.06,0.39-0.13,0.59l-0.79,2.29H58.65z"/>
		<path class="st0" d="M70.17,66.85h-4.33V60.1h1.64v5.52h2.69V66.85z"/>
		<path class="st0" d="M83.41,60.1l-1.92,6.75h-1.82l-1.21-4.33c-0.07-0.23-0.1-0.48-0.12-0.76h-0.02
			c-0.03,0.31-0.08,0.56-0.13,0.76l-1.24,4.33h-1.89l-1.91-6.75h1.79l1.03,4.5c0.04,0.19,0.08,0.45,0.1,0.77h0.03
			c0.01-0.24,0.06-0.5,0.15-0.79l1.32-4.48h1.75l1.19,4.53c0.05,0.17,0.08,0.41,0.12,0.72h0.02c0.01-0.25,0.05-0.5,0.1-0.75l1-4.51
			H83.41z"/>
		<path class="st0" d="M89.98,60.1v1.18h-0.61v4.4h0.61v1.18h-2.85v-1.18h0.61v-4.4h-0.61V60.1H89.98z"/>
		<path class="st0" d="M102.1,66.85h-1.65l-3-4.24c-0.18-0.25-0.3-0.43-0.37-0.56h-0.02c0.03,0.24,0.04,0.6,0.04,1.09v3.71h-1.55
			V60.1h1.76l2.89,4.11c0.13,0.19,0.25,0.37,0.37,0.55h0.02c-0.03-0.16-0.04-0.47-0.04-0.93V60.1h1.55V66.85z"/>
		<path class="st0" d="M111.28,66.85h-4.36V60.1h4.19v1.24h-2.56v1.5h2.38v1.23h-2.38v1.54h2.72V66.85z"/>
		<path class="st0" d="M122.35,66.96c-0.18,0-0.35-0.02-0.51-0.07c-0.16-0.04-0.31-0.1-0.45-0.18c-0.14-0.08-0.28-0.16-0.41-0.27
			c-0.13-0.1-0.25-0.21-0.37-0.33c-0.12,0.09-0.28,0.19-0.45,0.29c-0.18,0.1-0.37,0.19-0.6,0.27c-0.22,0.08-0.47,0.15-0.73,0.2
			c-0.27,0.05-0.55,0.08-0.86,0.08c-0.4,0-0.76-0.04-1.1-0.13c-0.34-0.09-0.63-0.22-0.87-0.39c-0.24-0.17-0.43-0.39-0.57-0.65
			c-0.14-0.26-0.2-0.55-0.2-0.89c0-0.27,0.05-0.5,0.15-0.71c0.1-0.21,0.24-0.39,0.4-0.55c0.17-0.16,0.35-0.29,0.56-0.41
			c0.21-0.11,0.42-0.21,0.64-0.28c-0.1-0.08-0.21-0.16-0.32-0.26c-0.11-0.1-0.2-0.21-0.29-0.32c-0.08-0.12-0.15-0.25-0.21-0.38
			c-0.05-0.14-0.08-0.28-0.08-0.44c0-0.25,0.05-0.47,0.16-0.66c0.11-0.19,0.26-0.35,0.45-0.49c0.2-0.13,0.43-0.23,0.7-0.3
			c0.27-0.07,0.57-0.1,0.89-0.1c0.31,0,0.6,0.04,0.85,0.11c0.26,0.07,0.48,0.17,0.67,0.3c0.19,0.13,0.33,0.28,0.43,0.46
			c0.1,0.18,0.15,0.38,0.15,0.6c0,0.35-0.11,0.65-0.34,0.91c-0.22,0.26-0.54,0.46-0.95,0.62c0.16,0.07,0.32,0.15,0.47,0.23
			c0.15,0.09,0.29,0.19,0.44,0.3c0.14,0.11,0.28,0.24,0.42,0.38c0.13,0.14,0.27,0.31,0.4,0.49c0.28-0.32,0.48-0.67,0.6-1.03
			c0.12-0.37,0.18-0.75,0.18-1.14c0-0.12-0.01-0.23-0.02-0.34c-0.02-0.11-0.04-0.21-0.07-0.31h1.36c0.04,0.1,0.06,0.2,0.08,0.29
			c0.02,0.09,0.03,0.21,0.03,0.33c0,0.3-0.03,0.6-0.1,0.89c-0.07,0.29-0.17,0.57-0.29,0.83c-0.12,0.26-0.28,0.51-0.45,0.75
			c-0.18,0.24-0.37,0.46-0.59,0.66c0.17,0.16,0.34,0.28,0.51,0.37c0.17,0.09,0.34,0.13,0.5,0.13c0.16,0,0.33-0.02,0.5-0.05
			c0.17-0.03,0.32-0.08,0.44-0.14v1.12c-0.19,0.07-0.37,0.12-0.55,0.15C122.77,66.94,122.57,66.96,122.35,66.96z M118.05,65.84
			c0.2,0,0.39-0.02,0.56-0.05c0.17-0.04,0.34-0.08,0.5-0.14c0.15-0.06,0.3-0.13,0.43-0.21c0.13-0.08,0.26-0.16,0.37-0.24
			c-0.17-0.25-0.34-0.46-0.51-0.64c-0.17-0.17-0.34-0.32-0.5-0.45c-0.17-0.12-0.33-0.23-0.5-0.31c-0.16-0.08-0.33-0.16-0.49-0.23
			c-0.14,0.06-0.27,0.13-0.4,0.21c-0.13,0.08-0.24,0.17-0.34,0.27c-0.1,0.1-0.18,0.22-0.24,0.35c-0.06,0.13-0.09,0.28-0.09,0.45
			c0,0.15,0.03,0.29,0.09,0.41c0.06,0.12,0.14,0.23,0.25,0.32c0.1,0.09,0.23,0.16,0.38,0.21C117.71,65.81,117.88,65.84,118.05,65.84
			z M118.99,61.56c0-0.09-0.02-0.17-0.06-0.24c-0.04-0.07-0.09-0.13-0.15-0.18c-0.06-0.05-0.14-0.09-0.22-0.11
			c-0.08-0.03-0.17-0.04-0.26-0.04c-0.11,0-0.21,0.02-0.3,0.05c-0.09,0.03-0.18,0.07-0.24,0.13c-0.07,0.05-0.12,0.12-0.16,0.19
			c-0.04,0.07-0.06,0.15-0.06,0.24c0,0.18,0.06,0.34,0.18,0.49c0.12,0.15,0.27,0.27,0.44,0.36c0.11-0.04,0.22-0.08,0.32-0.13
			c0.1-0.05,0.19-0.11,0.26-0.18c0.08-0.07,0.14-0.15,0.18-0.24C118.97,61.78,118.99,61.68,118.99,61.56z"/>
		<path class="st0" d="M127.17,66.59v-1.51c0.29,0.23,0.61,0.4,0.96,0.52c0.34,0.11,0.69,0.17,1.04,0.17c0.21,0,0.39-0.02,0.54-0.05
			c0.15-0.03,0.28-0.08,0.38-0.14c0.1-0.06,0.18-0.13,0.23-0.22c0.05-0.08,0.08-0.17,0.08-0.27c0-0.13-0.04-0.25-0.12-0.35
			c-0.08-0.1-0.19-0.2-0.33-0.29c-0.14-0.09-0.31-0.17-0.5-0.25c-0.19-0.08-0.4-0.17-0.62-0.25c-0.57-0.22-0.99-0.49-1.27-0.81
			c-0.28-0.32-0.42-0.7-0.42-1.15c0-0.35,0.08-0.65,0.23-0.91c0.15-0.25,0.36-0.46,0.62-0.62c0.26-0.16,0.57-0.28,0.91-0.36
			c0.34-0.08,0.71-0.12,1.09-0.12c0.38,0,0.72,0.02,1.01,0.06c0.29,0.04,0.56,0.11,0.81,0.19v1.41c-0.12-0.08-0.26-0.15-0.4-0.21
			c-0.14-0.06-0.29-0.11-0.44-0.15c-0.15-0.04-0.3-0.07-0.45-0.09c-0.15-0.02-0.29-0.03-0.43-0.03c-0.19,0-0.35,0.02-0.51,0.05
			c-0.15,0.03-0.28,0.08-0.39,0.14c-0.1,0.06-0.19,0.13-0.24,0.21c-0.06,0.08-0.09,0.18-0.09,0.28c0,0.11,0.03,0.21,0.1,0.3
			c0.07,0.09,0.16,0.17,0.28,0.25c0.12,0.08,0.26,0.16,0.43,0.23c0.17,0.08,0.36,0.16,0.57,0.24c0.29,0.11,0.55,0.23,0.78,0.36
			c0.23,0.13,0.43,0.27,0.6,0.43c0.17,0.16,0.29,0.34,0.38,0.55c0.09,0.21,0.13,0.45,0.13,0.72c0,0.38-0.08,0.69-0.23,0.95
			c-0.15,0.26-0.36,0.46-0.63,0.62c-0.26,0.16-0.57,0.27-0.92,0.34c-0.35,0.07-0.72,0.1-1.11,0.1c-0.4,0-0.78-0.03-1.14-0.09
			C127.75,66.81,127.44,66.72,127.17,66.59z"/>
		<path class="st0" d="M143.06,66.85h-1.64V64.1h-3.01v2.75h-1.64V60.1h1.64v2.69h3.01V60.1h1.64V66.85z"/>
		<path class="st0" d="M150.15,66.97c-1.04,0-1.89-0.32-2.54-0.94c-0.66-0.63-0.98-1.45-0.98-2.46c0-1.07,0.33-1.93,1-2.59
			c0.67-0.66,1.55-0.99,2.65-0.99c1.04,0,1.88,0.32,2.52,0.95c0.64,0.63,0.96,1.46,0.96,2.5c0,1.06-0.33,1.92-1,2.57
			C152.08,66.64,151.22,66.97,150.15,66.97z M150.22,61.3c-0.57,0-1.03,0.2-1.37,0.6c-0.34,0.4-0.51,0.93-0.51,1.59
			c0,0.67,0.17,1.2,0.51,1.59c0.34,0.39,0.78,0.58,1.33,0.58c0.56,0,1.01-0.19,1.34-0.57c0.33-0.38,0.5-0.9,0.5-1.57
			c0-0.7-0.16-1.24-0.48-1.63C151.22,61.49,150.78,61.3,150.22,61.3z"/>
		<path class="st0" d="M159.43,64.53v2.33h-1.64V60.1h2.57c1.83,0,2.75,0.72,2.75,2.15c0,0.68-0.26,1.23-0.79,1.65
			c-0.53,0.42-1.23,0.63-2.11,0.63H159.43z M159.43,61.27v2.1h0.64c0.87,0,1.31-0.35,1.31-1.06c0-0.69-0.43-1.04-1.31-1.04H159.43z"
			/>
	</g>
	<path class="st0" d="M30.84,32.96c0.17-1.85,0.86-3-1.17-4.11c-1.38-0.76-2.84-0.84-4.36-1.12c-1.89-0.35-3.86-0.95-4.86-2.54
		c0,0.3,0.01,0.61,0.01,0.93c0,1.9-0.08,3.65-0.26,5.26c-4.58,1.46-8.35,3.52-11.32,6.18c-2.97,2.66-4.46,5.49-4.46,8.47
		c0,2.26,0.85,4.13,2.56,5.6c1.71,1.47,3.89,2.21,6.54,2.21c4.28,0,8.13-1.93,11.58-5.8c2.9-3.26,4.96-7.19,6.17-11.76
		C30.95,35.13,30.75,33.99,30.84,32.96z M16.56,45.07c-1.41,2.09-2.87,3.13-4.36,3.13c-0.73,0-1.37-0.23-1.92-0.69
		c-0.56-0.46-0.83-1.17-0.83-2.13c0-1.65,0.91-3.37,2.73-5.17c1.82-1.8,4.31-3.26,7.47-4.37C18.99,39.91,17.97,42.98,16.56,45.07z"
		/>
	<path class="st0" d="M51.32,10.07c-1.28-2.07-3.12-3.1-5.52-3.1c-2.39,0-6.35,1.36-11.87,4.08c-2.31,1.11-3.8,1.8-4.49,2.07
		c-2.65-3.06-6.2-4.6-10.65-4.6c-2.87,0-5.14,0.64-6.83,1.92c-1.69,1.28-2.53,2.75-2.53,4.4c0,1.65,0.81,3.04,2.44,4.17
		c1.63,1.13,3.95,1.69,6.99,1.69c1.01,0,1.78-0.04,2.29-0.11c0.08-0.36,0.16-0.73,0.22-1.12c0.23-1.65-0.04-3.8-1.76-4.62
		c-0.06-0.03-0.12-0.05-0.19-0.08c0.35,0.52,0.65,1.15,0.91,1.91c-0.68,0.15-1.5,0.23-2.44,0.23c-0.94,0-1.72-0.23-2.34-0.69
		c-0.62-0.46-0.93-0.93-0.93-1.41c0-0.19,0.03-0.36,0.08-0.52c-0.25-0.06-0.48-0.13-0.71-0.23c0.22,0.1,0.46,0.18,0.71,0.23
		c0.08-0.26,0.2-0.49,0.4-0.69c0.32-0.32,0.82-0.49,1.51-0.49c1.14,0,2.07,0.55,2.81,1.65c0.06,0.02,0.13,0.05,0.19,0.08
		c1.72,0.82,1.99,2.96,1.76,4.62c-0.06,0.39-0.14,0.77-0.22,1.12c0.01,0,0.01,0,0.02,0c0.14,0.99,0.22,2.22,0.25,3.7
		c0.99,1.59,2.97,2.19,4.86,2.54c1.52,0.28,2.98,0.37,4.36,1.12c2.03,1.11,1.33,2.26,1.17,4.11c-0.09,1.03,0.1,2.18,0.45,3.31
		c0.23-0.85,0.43-1.71,0.59-2.6c0.34-1.59,0.58-4.6,0.58-4.6c0-0.23,0.01-0.55,0.03-0.98c0.02-0.42,0.03-0.75,0.03-0.98
		c0-3.25-0.43-6.03-1.28-8.33c4.49-1.07,8.23-1.61,11.23-1.61c2.99,0,5.49,0.77,7.5,2.3c1.37-0.69,2.14-1.19,2.31-1.49
		C53.25,14.48,52.61,12.14,51.32,10.07z"/>
	<g>
		<path class="st0" d="M160.74,21.39c1.58-0.61,2.37-1.59,2.37-2.93c0-0.54-0.31-1.42-0.93-2.64c-0.62-1.23-1.17-2.13-1.64-2.7
			c-6.46,3.68-12.31,6.66-17.57,8.96l1.09,2.87C152.78,23.57,158.34,22.38,160.74,21.39z"/>
		<path class="st0" d="M160.06,30.21c-1.99-1.28-4.58-1.92-7.79-1.92c-4.83,0-8.86,1.32-12.09,3.96c-2.96,2.42-4.54,5.8-4.79,10.12
			c-2.56,1.75-8.82,6.37-10.7,6.37c-3.04,0-4.55-2.36-4.55-7.07c0-2.15,0.47-4.27,1.41-6.38c0.94-2.11,2.07-3.16,3.4-3.16
			c0.26,0,0.51,0.04,0.77,0.12l-0.96,4.31c0.98,0.73,2.3,1.33,3.94,1.81c1.65,0.48,3.18,0.72,4.59,0.72c1.2-1.3,1.8-2.84,1.8-4.63
			c0-1.78-0.92-3.25-2.76-4.42c-1.84-1.17-4.36-1.75-7.57-1.75c-4.96,0-8.97,1.42-12.03,4.25c-3.06,2.84-4.59,6.47-4.59,10.92
			c0,1.21,0.12,2.31,0.35,3.32l-6.12,1.85c-0.3,0-0.45-0.49-0.45-1.47c0-0.98,0.47-3.09,1.41-6.35c0.94-3.26,1.41-5.62,1.41-7.1
			c0-1.47-0.51-2.74-1.54-3.79c-1.03-1.05-2.44-1.58-4.23-1.58c-2.65,0-5.92,1.07-9.82,3.22c-0.17-0.96-0.47-1.88-0.9-2.76
			c-6.28,0-10.69,0.36-13.21,1.09l-0.13,0.86l0.58,0.52c0.39,0.34,0.77,0.86,1.15,1.55c0.39,0.69,0.58,1.4,0.58,2.13
			c0,0.02-0.01,0.07-0.01,0.1l-0.06,0.01c-1.63,0.42-3.34,0.67-5.13,0.75c-0.13-2.41-0.65-4.27-1.57-5.57
			c-0.92-1.3-2.45-1.95-4.59-1.95c-0.9,0-1.86,0.13-2.89,0.4l-2.88-0.23c-1.76,0-3.38,0.23-4.87,0.67c-0.79-0.12-2.5-0.26-2.74-0.29
			c-1.13-0.15-2.25-0.32-3.38-0.47c-4.02-0.53-8.1-0.64-12.15-0.46c-1.18,0.05-2.36,0.13-3.53,0.27c0,0-0.24,3-0.58,4.6
			c0.34-0.04,0.83-0.06,1.47-0.06c2.84,0,5.67,0.26,8.49,0.62c1.75,0.22,3.52,0.44,5.26,0.77c-2.07,2.68-3.11,5.83-3.11,9.47
			c0,3.45,0.96,6.12,2.89,8.01c1.92,1.9,4.55,2.84,7.89,2.84c4.15,0,7.61-1.4,10.39-4.19c2.78-2.8,4.64-6.22,5.58-10.28
			c1.78-0.32,3.37-0.72,4.8-1.2c-0.28,1.23-0.65,2.74-1.11,4.53c-1.22,4.83-1.83,8.43-1.83,10.8h1.09c5.09,0,8.68-0.36,10.78-1.09
			c0-2.45,0.68-6.45,2.05-12.01c0.68-2.64,1.11-4.31,1.28-5c1.28-0.77,2.31-1.15,3.08-1.15c0.6,0,0.9,0.41,0.9,1.24
			c0,0.82-0.45,2.88-1.35,6.18c-0.9,3.29-1.35,5.67-1.35,7.12c0,3.37,1.82,5.06,5.45,5.06c1.84,0,3.86-0.39,6.06-1.18
			c2.08-0.74,6.44-2.54,8.07-3.52c0.44,0.74,0.97,1.4,1.61,1.97c2.07,1.82,4.78,2.73,8.11,2.73c2.48,0,4.97-0.5,7.47-1.49
			c1.9-0.76,6.1-4.06,8.8-6.38c0.43,2.07,1.33,3.76,2.72,5.05c2.01,1.88,4.7,2.82,8.08,2.82s6.44-0.65,9.17-1.95
			c1.07-0.5,2.09-1.08,3.05-1.75c0.96-0.67,1.57-1.12,1.83-1.35l0.7-0.63l-2.05-2.47l-1.09,0.57c-0.77,0.42-1.76,0.83-2.98,1.24
			c-1.22,0.4-2.3,0.6-3.24,0.6c-2.43,0-3.89-1.26-4.36-3.79l1.61-0.23c2.57-0.31,5.39-1.11,8.46-2.41c1.54-0.65,2.84-1.59,3.91-2.81
			c1.07-1.23,1.6-2.6,1.6-4.14C163.05,33.19,162.05,31.49,160.06,30.21z M64.37,46.27c-1.47,1.61-2.92,2.41-4.33,2.41
			c-2.01,0-3.02-1.78-3.02-5.34c0-2.07,0.33-4.15,0.99-6.23c0.66-2.09,1.36-3.48,2.09-4.17c0.21-0.11,0.53-0.17,0.96-0.17
			c-0.13,0.69-0.19,1.36-0.19,2.01c0,3.75,2.18,5.63,6.54,5.63C66.86,42.7,65.85,44.66,64.37,46.27z M150.92,38.37
			c-1.24,1.67-2.48,2.58-3.72,2.73c0.13-2.72,0.64-4.84,1.54-6.35c0.9-1.51,1.86-2.27,2.89-2.27c0.77,0,1.15,0.44,1.15,1.32
			C152.78,35.18,152.16,36.7,150.92,38.37z"/>
	</g>
	<path class="st0" d="M144.06,24.95l-1.09-2.87l17.57-8.96c0,0,2.63,3.83,2.56,5.34c-0.06,1.51-0.99,2.2-1.37,2.42
		c-0.37,0.22-1.47,0.72-2.29,0.96c-0.82,0.24-3.35,0.89-4.08,1.05c-0.73,0.16-6.53,1.28-8.02,1.52
		C145.86,24.65,144.06,24.95,144.06,24.95z"/>
</g>
</svg>
