<?xml version="1.0" encoding="utf-8"?>
<!-- Generator: Adobe Illustrator 25.4.6, SVG Export Plug-In . SVG Version: 6.00 Build 0)  -->
<svg version="1.1" id="레이어_1" xmlns="http://www.w3.org/2000/svg" xmlns:xlink="http://www.w3.org/1999/xlink" x="0px"
	 y="0px" viewBox="0 0 407 189" style="enable-background:new 0 0 407 189;" xml:space="preserve">
<g>
	<g>
		<path d="M21.98,17.38c-3.53,9.73-9.24,18.53-12.46,28.39C6.16,56.1,4.88,67.37,5.8,78.18c0.97,11.38,4.43,22.76,12.55,31.02
			c8.21,8.36,19.34,11.92,30.59,14.03c-5.41-0.23-12.58-4.18-16.77-7.28c-10.61-7.84-16.67-16.83-19.54-29.88
			C7.62,63.37,14.24,38.72,21.98,17.38z"/>
	</g>
	<g>
		<path d="M48.94,150.01c0,13.17-0.89,23.84-1.99,23.84c-1.1,0-1.99-10.67-1.99-23.84c0-13.16,0.89-23.83,1.99-23.83
			C48.05,126.17,48.94,136.85,48.94,150.01z"/>
	</g>
	<g>
		<path d="M46.95,173.85c-18.39,0-33.29,2.08-33.29,4.64h66.58C80.24,175.92,65.34,173.85,46.95,173.85z"/>
	</g>
	<g>
		<g>
			<path d="M98.25,178.34h-3.27l-5.94-9.05c-0.35-0.53-0.59-0.92-0.72-1.19h-0.04c0.05,0.51,0.08,1.29,0.08,2.33v7.91h-3.06v-14.41
				h3.5l5.72,8.77c0.26,0.4,0.5,0.79,0.72,1.17h0.04c-0.05-0.33-0.08-0.99-0.08-1.98v-7.97h3.06V178.34z"/>
		</g>
		<g>
			<path d="M119.23,178.34h-3.54l-1.02-3.2h-5.12l-1.01,3.2h-3.52l5.24-14.41h3.85L119.23,178.34z M113.92,172.64l-1.55-4.84
				c-0.11-0.36-0.19-0.79-0.24-1.3h-0.08c-0.03,0.42-0.12,0.84-0.25,1.26l-1.57,4.88H113.92z"/>
		</g>
		<g>
			<path d="M138.19,166.57h-4.11v11.76h-3.25v-11.76h-4.09v-2.64h11.45V166.57z"/>
		</g>
		<g>
			<path d="M158.77,172.1c0,4.33-2.02,6.49-6.05,6.49c-3.91,0-5.87-2.11-5.87-6.34v-8.32h3.25v8.36c0,2.33,0.91,3.5,2.73,3.5
				c1.79,0,2.68-1.13,2.68-3.37v-8.48h3.24V172.1z"/>
		</g>
		<g>
			<path d="M179.21,178.34h-3.73l-2.24-3.71c-0.17-0.28-0.33-0.53-0.48-0.75c-0.15-0.22-0.31-0.41-0.47-0.57
				c-0.16-0.16-0.32-0.28-0.49-0.36c-0.17-0.08-0.36-0.13-0.56-0.13h-0.87v5.51h-3.24v-14.41h5.14c3.49,0,5.24,1.31,5.24,3.92
				c0,0.5-0.08,0.97-0.23,1.39c-0.15,0.43-0.37,0.81-0.65,1.15c-0.28,0.34-0.62,0.64-1.02,0.88c-0.4,0.25-0.84,0.44-1.33,0.58v0.04
				c0.21,0.07,0.42,0.17,0.62,0.33c0.2,0.15,0.39,0.33,0.58,0.53c0.19,0.2,0.37,0.42,0.54,0.65c0.17,0.23,0.33,0.46,0.47,0.68
				L179.21,178.34z M170.37,166.36v4.01h1.41c0.7,0,1.26-0.2,1.68-0.6c0.43-0.41,0.64-0.91,0.64-1.52c0-1.26-0.75-1.89-2.26-1.89
				H170.37z"/>
		</g>
		<g>
			<path d="M200.62,178.34h-3.54l-1.02-3.2h-5.12l-1.02,3.2h-3.52l5.24-14.41h3.85L200.62,178.34z M195.32,172.64l-1.55-4.84
				c-0.11-0.36-0.19-0.79-0.24-1.3h-0.08c-0.03,0.42-0.12,0.84-0.25,1.26l-1.57,4.88H195.32z"/>
		</g>
		<g>
			<path d="M218.15,178.34h-8.58v-14.41h3.24v11.77h5.33V178.34z"/>
		</g>
		<g>
			<path d="M244.37,163.93l-3.81,14.41h-3.6l-2.39-9.24c-0.13-0.48-0.21-1.02-0.23-1.62h-0.04c-0.06,0.66-0.15,1.2-0.26,1.62
				l-2.45,9.24h-3.75l-3.79-14.41h3.55l2.03,9.6c0.09,0.41,0.15,0.96,0.19,1.64h0.06c0.03-0.51,0.12-1.08,0.29-1.69l2.61-9.55h3.48
				l2.36,9.67c0.09,0.35,0.16,0.87,0.23,1.54h0.04c0.02-0.53,0.09-1.06,0.21-1.61l1.99-9.61H244.37z"/>
		</g>
		<g>
			<path d="M257.39,163.93v2.51h-1.21v9.38h1.21v2.51h-5.65v-2.51h1.21v-9.38h-1.21v-2.51H257.39z"/>
		</g>
		<g>
			<path d="M281.39,178.34h-3.27l-5.94-9.05c-0.35-0.53-0.59-0.92-0.72-1.19h-0.04c0.05,0.51,0.08,1.29,0.08,2.33v7.91h-3.06v-14.41
				h3.5l5.72,8.77c0.26,0.4,0.5,0.79,0.72,1.17h0.04c-0.05-0.33-0.08-0.99-0.08-1.98v-7.97h3.06V178.34z"/>
		</g>
		<g>
			<path d="M299.58,178.34h-8.64v-14.41h8.31v2.64h-5.06v3.21h4.71v2.63h-4.71v3.29h5.39V178.34z"/>
		</g>
		<g>
			<path d="M321.51,178.57c-0.35,0-0.69-0.05-1.01-0.14c-0.32-0.09-0.62-0.22-0.9-0.38c-0.29-0.16-0.56-0.35-0.81-0.57
				c-0.25-0.22-0.49-0.45-0.72-0.7c-0.25,0.2-0.55,0.41-0.89,0.62c-0.35,0.21-0.74,0.41-1.18,0.58c-0.44,0.17-0.92,0.31-1.45,0.42
				c-0.53,0.11-1.09,0.17-1.7,0.17c-0.78,0-1.51-0.09-2.18-0.28c-0.67-0.19-1.24-0.47-1.72-0.84c-0.48-0.37-0.86-0.83-1.13-1.38
				c-0.27-0.55-0.41-1.19-0.41-1.91c0-0.57,0.1-1.08,0.31-1.52c0.2-0.45,0.47-0.84,0.8-1.17c0.33-0.33,0.7-0.62,1.12-0.86
				c0.41-0.24,0.83-0.44,1.26-0.6c-0.21-0.16-0.42-0.34-0.63-0.56c-0.21-0.21-0.4-0.44-0.57-0.69c-0.17-0.25-0.31-0.52-0.41-0.82
				c-0.1-0.3-0.16-0.61-0.16-0.93c0-0.53,0.11-1,0.32-1.41c0.21-0.41,0.52-0.75,0.9-1.04c0.39-0.28,0.85-0.49,1.38-0.64
				c0.54-0.15,1.13-0.22,1.77-0.22c0.62,0,1.18,0.08,1.69,0.23c0.51,0.15,0.95,0.37,1.32,0.64c0.37,0.28,0.65,0.6,0.86,0.99
				c0.2,0.39,0.3,0.81,0.3,1.27c0,0.74-0.22,1.39-0.67,1.93c-0.44,0.55-1.07,0.99-1.88,1.33c0.32,0.15,0.63,0.31,0.92,0.5
				c0.3,0.19,0.58,0.4,0.86,0.64c0.28,0.24,0.56,0.51,0.82,0.82c0.27,0.3,0.53,0.66,0.79,1.05c0.55-0.69,0.94-1.43,1.18-2.21
				c0.24-0.78,0.36-1.59,0.36-2.44c0-0.25-0.01-0.5-0.05-0.73c-0.03-0.23-0.08-0.45-0.14-0.65h2.7c0.07,0.21,0.13,0.42,0.16,0.62
				s0.05,0.44,0.05,0.71c0,0.65-0.07,1.28-0.21,1.9c-0.14,0.62-0.33,1.21-0.58,1.77c-0.25,0.56-0.55,1.1-0.9,1.6
				c-0.35,0.5-0.74,0.97-1.16,1.41c0.33,0.34,0.67,0.61,1.02,0.79c0.35,0.18,0.67,0.28,0.98,0.28c0.32,0,0.65-0.04,0.98-0.11
				c0.33-0.07,0.62-0.17,0.87-0.3v2.39c-0.37,0.15-0.73,0.26-1.09,0.33C322.35,178.53,321.95,178.57,321.51,178.57z M313,176.17
				c0.4,0,0.77-0.04,1.12-0.12c0.35-0.08,0.67-0.18,0.98-0.31c0.31-0.13,0.59-0.28,0.86-0.44c0.26-0.17,0.51-0.34,0.73-0.52
				c-0.34-0.54-0.68-0.99-1.01-1.36c-0.34-0.37-0.67-0.69-1-0.95c-0.33-0.26-0.65-0.49-0.98-0.67c-0.33-0.18-0.65-0.34-0.98-0.49
				c-0.27,0.13-0.54,0.28-0.79,0.45c-0.25,0.16-0.47,0.35-0.67,0.57c-0.19,0.22-0.35,0.46-0.47,0.74c-0.12,0.28-0.18,0.6-0.18,0.96
				c0,0.32,0.06,0.61,0.17,0.87c0.11,0.26,0.28,0.49,0.49,0.67c0.21,0.19,0.46,0.33,0.75,0.44
				C312.32,176.11,312.65,176.17,313,176.17z M314.86,167.05c0-0.19-0.04-0.37-0.11-0.52c-0.07-0.16-0.17-0.29-0.3-0.39
				c-0.13-0.1-0.27-0.18-0.43-0.24c-0.16-0.06-0.33-0.08-0.51-0.08c-0.22,0-0.42,0.03-0.61,0.1c-0.18,0.07-0.35,0.16-0.48,0.27
				c-0.14,0.11-0.24,0.25-0.32,0.41c-0.07,0.16-0.11,0.33-0.11,0.5c0,0.38,0.12,0.72,0.35,1.04c0.23,0.31,0.53,0.57,0.87,0.76
				c0.22-0.08,0.43-0.17,0.63-0.28c0.2-0.11,0.37-0.24,0.52-0.38c0.15-0.15,0.27-0.32,0.36-0.51
				C314.82,167.52,314.86,167.3,314.86,167.05z"/>
		</g>
		<g>
			<path d="M331.07,177.78v-3.21c0.58,0.49,1.22,0.86,1.9,1.1c0.68,0.24,1.37,0.37,2.07,0.37c0.41,0,0.77-0.04,1.07-0.11
				c0.3-0.07,0.56-0.18,0.76-0.31c0.21-0.13,0.36-0.29,0.46-0.46c0.1-0.18,0.15-0.37,0.15-0.58c0-0.28-0.08-0.53-0.24-0.75
				c-0.16-0.22-0.38-0.42-0.66-0.61c-0.28-0.19-0.61-0.37-0.99-0.54c-0.38-0.17-0.79-0.35-1.23-0.53c-1.13-0.47-1.96-1.04-2.52-1.72
				c-0.55-0.67-0.83-1.49-0.83-2.45c0-0.75,0.15-1.39,0.45-1.93c0.3-0.54,0.71-0.98,1.23-1.33c0.52-0.35,1.12-0.6,1.8-0.77
				c0.68-0.16,1.41-0.25,2.17-0.25c0.75,0,1.42,0.04,2,0.13c0.58,0.09,1.11,0.23,1.6,0.42v3c-0.24-0.17-0.5-0.31-0.79-0.44
				c-0.28-0.13-0.58-0.23-0.88-0.32c-0.3-0.08-0.6-0.14-0.9-0.19c-0.3-0.04-0.58-0.06-0.85-0.06c-0.37,0-0.7,0.04-1,0.11
				c-0.3,0.07-0.56,0.17-0.76,0.3c-0.21,0.13-0.37,0.28-0.48,0.46c-0.11,0.18-0.17,0.38-0.17,0.6c0,0.24,0.06,0.46,0.19,0.65
				c0.13,0.19,0.31,0.37,0.54,0.54c0.23,0.17,0.52,0.34,0.85,0.5c0.33,0.17,0.71,0.34,1.14,0.51c0.58,0.24,1.09,0.5,1.55,0.77
				c0.46,0.27,0.85,0.58,1.18,0.92c0.33,0.34,0.58,0.73,0.75,1.17c0.17,0.44,0.26,0.95,0.26,1.53c0,0.8-0.15,1.48-0.46,2.03
				c-0.3,0.54-0.72,0.99-1.24,1.33c-0.52,0.34-1.13,0.58-1.82,0.73c-0.69,0.15-1.42,0.22-2.19,0.22c-0.79,0-1.54-0.07-2.26-0.2
				C332.21,178.25,331.59,178.05,331.07,177.78z"/>
		</g>
		<g>
			<path d="M362.53,178.34h-3.25v-5.87h-5.97v5.87h-3.24v-14.41h3.24v5.75h5.97v-5.75h3.25V178.34z"/>
		</g>
		<g>
			<path d="M376.58,178.59c-2.06,0-3.74-0.67-5.04-2.02c-1.3-1.34-1.95-3.09-1.95-5.25c0-2.28,0.66-4.12,1.98-5.53
				c1.32-1.41,3.07-2.11,5.24-2.11c2.06,0,3.72,0.67,4.99,2.02c1.27,1.35,1.9,3.12,1.9,5.32c0,2.26-0.66,4.09-1.97,5.47
				C380.42,177.89,378.7,178.59,376.58,178.59z M376.72,166.48c-1.14,0-2.04,0.43-2.71,1.28c-0.67,0.86-1,1.98-1,3.39
				c0,1.43,0.33,2.55,1,3.38c0.67,0.83,1.55,1.25,2.63,1.25c1.12,0,2-0.4,2.66-1.21c0.66-0.81,0.98-1.93,0.98-3.36
				c0-1.49-0.32-2.65-0.95-3.49C378.7,166.9,377.83,166.48,376.72,166.48z"/>
		</g>
		<g>
			<path d="M394.98,173.37v4.96h-3.24v-14.41h5.08c3.63,0,5.45,1.53,5.45,4.59c0,1.45-0.52,2.62-1.56,3.51
				c-1.04,0.89-2.43,1.34-4.17,1.34H394.98z M394.98,166.42v4.49h1.28c1.73,0,2.59-0.76,2.59-2.27c0-1.48-0.86-2.22-2.59-2.22
				H394.98z"/>
		</g>
	</g>
	<g>
		<path d="M99.17,73.23c0.38-4.58,1.97-7.42-2.68-10.17c-3.16-1.86-6.5-2.08-9.99-2.78c-4.33-0.86-8.86-2.34-11.14-6.26
			c0.01,0.74,0.02,1.5,0.02,2.29c0,4.68-0.2,9.01-0.59,12.99c-10.5,3.6-19.15,8.68-25.97,15.26c-6.82,6.58-10.22,13.55-10.22,20.93
			c0,5.59,1.96,10.2,5.88,13.84c3.92,3.64,8.92,5.46,15.01,5.46c9.81,0,18.66-4.78,26.56-14.33c6.66-8.06,11.38-17.75,14.16-29.05
			C99.41,78.6,98.96,75.77,99.17,73.23z M66.41,103.15c-3.24,5.16-6.57,7.74-10,7.74c-1.67,0-3.14-0.57-4.41-1.7
			c-1.28-1.14-1.91-2.88-1.91-5.25c0-4.07,2.08-8.33,6.25-12.77c4.17-4.45,9.88-8.04,17.14-10.79C72,90.4,69.64,98,66.41,103.15z"/>
	</g>
	<g>
		<path d="M146.15,16.7c-2.94-5.11-7.16-7.66-12.65-7.66c-5.49,0-14.56,3.36-27.21,10.08c-5.3,2.75-8.73,4.45-10.3,5.11
			c-6.08-7.57-14.22-11.35-24.42-11.35c-6.57,0-11.79,1.58-15.67,4.75c-3.88,3.17-5.81,6.79-5.81,10.86c0,4.07,1.86,7.5,5.59,10.29
			c3.73,2.79,9.07,4.19,16.04,4.19c2.32,0,4.07-0.09,5.25-0.28c0.19-0.89,0.38-1.8,0.5-2.78c0.53-4.09-0.08-9.38-4.03-11.41
			c-0.14-0.07-0.28-0.13-0.43-0.19c0.79,1.27,1.49,2.84,2.09,4.72c-1.57,0.38-3.44,0.57-5.59,0.57c-2.16,0-3.95-0.57-5.37-1.7
			C62.71,30.75,62,29.6,62,28.41c0-0.46,0.07-0.88,0.19-1.29c-0.57-0.14-1.11-0.32-1.62-0.58c0.51,0.25,1.05,0.44,1.62,0.58
			c0.17-0.63,0.47-1.2,0.92-1.69c0.74-0.8,1.89-1.2,3.46-1.2c2.6,0,4.75,1.36,6.45,4.08c0.14,0.06,0.29,0.12,0.43,0.19
			c3.94,2.03,4.56,7.32,4.03,11.41c-0.13,0.97-0.32,1.89-0.5,2.78c0.01,0,0.03,0,0.05-0.01c0.33,2.44,0.52,5.49,0.57,9.13
			c2.27,3.92,6.81,5.4,11.14,6.26c3.49,0.7,6.83,0.91,9.99,2.78c4.65,2.74,3.06,5.58,2.68,10.16c-0.21,2.55,0.24,5.37,1.04,8.18
			c0.52-2.09,0.97-4.23,1.36-6.43c0.77-3.94,1.32-11.35,1.32-11.35c0-0.57,0.02-1.37,0.07-2.41c0.05-1.04,0.07-1.84,0.07-2.41
			c0-8.04-0.98-14.9-2.94-20.58c10.3-2.65,18.88-3.97,25.74-3.97c6.86,0,12.6,1.89,17.21,5.68c3.14-1.7,4.9-2.93,5.3-3.69
			C150.56,27.58,149.09,21.81,146.15,16.7z"/>
	</g>
	<g>
		<g>
			<path d="M397.11,44.65c3.63-1.51,5.44-3.93,5.44-7.24c0-1.32-0.71-3.5-2.13-6.53c-1.42-3.03-2.67-5.25-3.75-6.67
				c-14.81,9.08-28.25,16.46-40.31,22.14l2.5,7.1C378.87,50.04,391.62,47.11,397.11,44.65z"/>
		</g>
		<g>
			<path d="M395.56,66.44c-4.56-3.17-10.52-4.75-17.87-4.75c-11.08,0-20.33,3.26-27.73,9.79c-6.78,5.98-10.42,14.33-10.99,24.99
				c-5.86,4.31-20.22,15.74-24.54,15.74c-6.96,0-10.44-5.82-10.44-17.46c0-5.3,1.08-10.55,3.23-15.75c2.16-5.2,4.76-7.81,7.8-7.81
				c0.59,0,1.18,0.09,1.77,0.28l-2.21,10.64c2.25,1.8,5.27,3.29,9.05,4.47c3.77,1.19,7.28,1.78,10.52,1.78
				c2.75-3.22,4.12-7.02,4.12-11.43c0-4.4-2.11-8.04-6.33-10.93c-4.22-2.89-10-4.33-17.36-4.33c-11.38,0-20.57,3.5-27.58,10.5
				c-7.01,7-10.52,15.99-10.52,26.96c0,2.99,0.28,5.71,0.8,8.2l-14.04,4.57c-0.69,0-1.03-1.21-1.03-3.62
				c0-2.41,1.08-7.64,3.24-15.68c2.16-8.04,3.24-13.88,3.24-17.53c0-3.64-1.18-6.76-3.53-9.37c-2.35-2.6-5.59-3.9-9.71-3.9
				c-6.08,0-13.58,2.65-22.51,7.95c-0.39-2.36-1.08-4.63-2.06-6.81c-14.42,0-24.52,0.9-30.31,2.7l-0.29,2.13l1.32,1.28
				c0.88,0.85,1.77,2.13,2.65,3.83c0.88,1.7,1.32,3.45,1.32,5.25c0,0.06-0.01,0.18-0.02,0.25l-0.13,0.04
				c-3.73,1.04-7.65,1.66-11.77,1.84c-0.29-5.96-1.5-10.55-3.6-13.77c-2.11-3.22-5.62-4.82-10.52-4.82c-2.06,0-4.27,0.33-6.62,0.99
				l-6.62-0.57c-4.03,0-7.74,0.56-11.17,1.64c-1.82-0.31-5.74-0.63-6.29-0.72c-2.59-0.38-5.17-0.79-7.76-1.15
				c-9.22-1.31-18.57-1.57-27.87-1.15c-2.71,0.12-5.41,0.33-8.1,0.67c0,0-0.55,7.42-1.32,11.35c0.78-0.09,1.91-0.14,3.38-0.14
				c6.52,0,13.01,0.64,19.46,1.53c4,0.55,8.08,1.09,12.07,1.9c-4.74,6.62-7.13,14.41-7.13,23.38c0,8.52,2.21,15.11,6.62,19.8
				c4.41,4.68,10.44,7.03,18.09,7.03c9.51,0,17.46-3.45,23.83-10.36c6.38-6.9,10.64-15.37,12.8-25.4c4.08-0.79,7.72-1.79,11-2.97
				c-0.65,3.03-1.5,6.76-2.54,11.2c-2.79,11.92-4.19,20.82-4.19,26.68h2.5c11.67,0,19.91-0.9,24.71-2.7
				c0-6.05,1.57-15.94,4.71-29.66c1.57-6.53,2.55-10.64,2.94-12.35c2.94-1.89,5.3-2.84,7.06-2.84c1.37,0,2.06,1.02,2.06,3.05
				c0,2.04-1.03,7.12-3.09,15.25c-2.06,8.14-3.09,14-3.09,17.6c0,8.33,4.17,12.49,12.51,12.49c4.21,0,8.85-0.97,13.9-2.91
				c4.77-1.83,14.77-6.28,18.51-8.68c1.02,1.83,2.23,3.46,3.7,4.85c4.75,4.5,10.96,6.74,18.61,6.74c5.69,0,11.4-1.23,17.14-3.69
				c4.36-1.87,14-10.03,20.18-15.75c0.98,5.1,3.04,9.28,6.23,12.48c4.61,4.64,10.79,6.96,18.54,6.96c7.75,0,14.76-1.61,21.04-4.83
				c2.45-1.23,4.78-2.67,6.99-4.33c2.21-1.65,3.6-2.77,4.19-3.33l1.62-1.56l-4.71-6.1l-2.5,1.42c-1.76,1.04-4.05,2.06-6.84,3.05
				c-2.8,0.99-5.27,1.49-7.43,1.49c-5.59,0-8.93-3.12-10-9.36l3.68-0.57c5.88-0.75,12.36-2.74,19.42-5.96
				c3.53-1.61,6.52-3.92,8.97-6.95c2.45-3.03,3.68-6.43,3.68-10.22C402.4,73.8,400.13,69.61,395.56,66.44z M176.07,106.1
				c-3.38,3.97-6.69,5.96-9.93,5.96c-4.61,0-6.92-4.4-6.92-13.2c0-5.11,0.76-10.24,2.28-15.4c1.52-5.16,3.11-8.59,4.78-10.29
				c0.49-0.28,1.22-0.43,2.21-0.43c-0.29,1.7-0.44,3.36-0.44,4.97c0,9.27,5,13.91,15,13.91C181.79,97.31,179.46,102.13,176.07,106.1
				z M374.6,86.59c-2.84,4.12-5.69,6.37-8.53,6.74c0.29-6.72,1.47-11.94,3.53-15.68c2.06-3.74,4.27-5.6,6.62-5.6
				c1.77,0,2.65,1.09,2.65,3.26C378.87,78.71,377.44,82.47,374.6,86.59z"/>
		</g>
	</g>
	<g>
		<path d="M358.86,53.45l-2.5-7.1l40.31-22.14c0,0,6.03,9.47,5.88,13.2c-0.15,3.73-2.28,5.45-3.14,5.99
			c-0.86,0.54-3.36,1.77-5.24,2.38c-1.88,0.6-7.68,2.2-9.35,2.59c-1.67,0.39-14.97,3.15-18.4,3.75
			C363,52.72,358.86,53.45,358.86,53.45z"/>
	</g>
</g>
</svg>
