<?xml version="1.0" encoding="utf-8"?>
<!-- Generator: Adobe Illustrator 26.3.1, SVG Export Plug-In . SVG Version: 6.00 Build 0)  -->
<svg version="1.1" id="레이어_1" xmlns="http://www.w3.org/2000/svg" xmlns:xlink="http://www.w3.org/1999/xlink" x="0px"
	 y="0px" viewBox="0 0 197 48" style="enable-background:new 0 0 197 48;" xml:space="preserve">
<style type="text/css">
	.st0{fill:#231815;}
	.st1{fill:#FFFFFF;}
</style>
<g>
	<rect x="0.21" y="0.26" class="st0" width="196.52" height="47.6"/>
	<g>
		<path class="st1" d="M31.31,17.23v16.02h-3.28V21.41l-3.48,3.06l-3.43-3.04v11.82h-3.7V17.21h3.7l3.48,3.89l3.43-3.87H31.31z"/>
		<path class="st1" d="M37.03,33.25c-1.89,0-3.54-1.03-3.54-3.32v-3.92c0-1.85,1.8-3.23,3.98-3.23h1.36c2.46,0,4.14,1.47,4.14,3.32
			v4.05c0,1.83-1.36,3.1-3.48,3.1H37.03z M38.72,31.25c0.99,0,1.47-0.84,1.47-1.45v-3.12c0-0.7-0.59-1.52-1.63-1.52h-0.62
			c-0.79,0-1.72,0.44-1.72,1.54v2.99c0,0.48,0.24,1.56,1.5,1.56H38.72z"/>
		<path class="st1" d="M52.76,27.38c0-0.9-0.73-1.78-1.52-1.78h-1.5c-0.62,0-1.47,0.64-1.47,1.43v6.23h-3.23V22.54h3.23v0.88
			c0.42-0.24,1.01-0.42,1.52-0.42h1.61c2,0,3.61,1.43,3.61,3.81v6.45h-2.24V27.38z"/>
		<path class="st1" d="M64.4,24.76h-2.35v8.49h-3.23v-8.49h-2.33v-2.18h2.33v-4.71h3.23v4.71h2.35V24.76z"/>
		<path class="st1" d="M73.13,27.18c0-1.56-0.86-1.96-1.65-1.96h-1.03c-0.55,0-1.5,0.29-1.5,0.9v7.13h-2.97V17.21h2.97v6.05
			c0.44-0.24,1.12-0.46,1.76-0.46h1.19c1.74,0,3.67,1.1,3.67,3.98v6.47h-2.44V27.18z"/>
		<path class="st1" d="M77.75,33.25V17.21h2.88v16.04H77.75z"/>
		<path class="st1" d="M88.11,39.48h-4.03l2.09-5.81l-4.14-10.89h2.86l2.57,7.02l2.55-7.02h4.09L88.11,39.48z"/>
		<path class="st1" d="M102.56,28.04c1.58,1.03,3.5,1.91,5.79,1.91c1.58,0,3.1-0.35,3.28-1.5c0.18-1.39-1.98-2.05-2.84-2.22
			c-2.29-0.59-3.74-1.06-4.16-1.3c-1.36-0.77-2.05-1.85-2.05-3.26c0-2.99,3.19-4.47,5.94-4.47c1.94,0,3.78,0.51,5.35,1.58v3.08
			c-1.21-1.03-3.06-2.05-4.77-1.87c-1.43,0.15-2.35,0.55-2.35,1.67c0,1.08,2.33,1.8,3.12,2.02c2.99,0.88,5.17,1.52,5.06,4.88
			c-0.11,3.32-3.72,4.67-6.45,4.67c-1.96,0-4.22-0.62-5.92-1.67V28.04z"/>
		<path class="st1" d="M122.76,22.6c1.76,0,3.3,1.45,3.3,3.12v4.66c0,1.67-1.67,2.64-3.15,2.64h-2.05c-0.62,0-1.1-0.2-1.43-0.46
			v5.28h-2.88v-15.4h2.88v0.77c0.51-0.37,1.28-0.62,2-0.62H122.76z M123.9,27.07c0-1.32-0.64-1.85-1.58-1.85h-1.21
			c-0.7,0-1.52,0.66-1.52,1.36v2.95c0,0.95,0.51,1.54,1.36,1.54h1.23c0.88,0,1.72-0.37,1.72-1.67V27.07z"/>
		<path class="st1" d="M133.21,22.78c2.05,0,3.89,1.32,3.89,3.45v2.49h-6.54v1.01c0,0.55,0.33,1.63,1.8,1.63h0.86
			c1.06,0,1.58-0.48,1.58-1.45h2.49v0.66c0,2.11-1.78,2.68-3.65,2.68h-2.11c-1.47,0-3.28-0.75-3.63-3.12v-3.89
			c0-1.94,1.87-3.45,4.05-3.45H133.21z M134.6,27.07v-0.66c0-0.79-0.86-1.5-1.69-1.5h-0.7c-0.84,0-1.63,0.7-1.63,1.5v0.66H134.6z"/>
		<path class="st1" d="M147.62,29.73v0.53c0,1.76-1.61,2.99-2.9,2.99h-2.29c-1.32,0-3.28-0.73-3.28-2.99V25.9
			c0-1.85,2.07-2.73,3.65-2.73h1.34c1.65,0,3.08,1.63,3.32,3.04l-2.31,0.31c-0.15-0.62-0.81-1.06-1.45-1.06h-0.77
			c-0.7,0-1.54,0.57-1.54,1.25v3.17c0,0.46,0.64,1.34,1.54,1.34h0.92c0.9,0,1.52-0.51,1.52-1.12v-0.37H147.62z"/>
		<path class="st1" d="M149.69,18.2h2.66v2.6h-2.66V18.2z M149.69,22.8h2.66v10.45h-2.66V22.8z"/>
		<path class="st1" d="M163.52,29.12c0,1.25,0.48,2.9,1.43,4.4h-2.6l-0.59-1.28c-0.53,0.64-1.25,0.99-1.96,0.99h-2.62
			c-1.23,0-2.77-0.9-2.77-3.01v-3.98c0-1.69,1.19-3.1,3.17-3.1h1.19c0.44,0,1.45,0.15,2.02,0.86v-1.23h2.73V29.12z M160.36,26.85
			c0-1.34-0.92-1.83-1.63-1.83h-0.59c-0.7,0-1.28,0.68-1.28,1.39v3.52c0,0.48,0.11,1.43,1.28,1.43h0.73c0.88,0,1.5-0.37,1.5-1.43
			V26.85z"/>
		<path class="st1" d="M166.27,33.25V17.21h2.88v16.04H166.27z"/>
		<path class="st1" d="M171.31,30.24c1.41,0.59,2.86,1.25,4.18,1.14c0.81,0,1.58-0.09,1.76-0.92c0.24-1.01-1.06-1.56-1.78-1.74
			c-2.35-0.59-4.14-0.97-4.14-3.1c0-2.82,3.52-3.59,5.79-3.06c0.86,0.2,1.65,0.46,2.33,0.97v2.22c-0.51-0.42-0.9-0.7-1.58-0.99
			c-0.88-0.4-2.18-0.59-2.99,0.04c-0.62,0.51-0.29,1.36,0.37,1.54c1.21,0.37,2.02,0.64,3.06,1.06c1.65,0.7,1.89,1.8,1.89,2.95
			c0,2.31-2.53,3.24-4.64,3.24c-1.58,0-2.9-0.44-4.25-1.3V30.24z"/>
	</g>
</g>
</svg>
