<?xml version="1.0" encoding="utf-8"?>
<!-- Generator: Adobe Illustrator 25.4.6, SVG Export Plug-In . SVG Version: 6.00 Build 0)  -->
<svg version="1.1" id="레이어_1" xmlns="http://www.w3.org/2000/svg" xmlns:xlink="http://www.w3.org/1999/xlink" x="0px"
	 y="0px" viewBox="0 0 733 91" style="enable-background:new 0 0 733 91;" xml:space="preserve">
<style type="text/css">
	.st0{fill:#FFFFFF;}
	.st1{fill:#231815;}
</style>
<g>
	<path class="st0" d="M4.99,64.85v-60h3.03l28.5,28.44L64.99,4.85h6.69v60H58.31V28.16L34.9,51.57L11.68,28.16v36.69H4.99z"/>
	<path class="st0" d="M98.31,18.16h13.38c3.65,0,6.78,1.32,9.39,3.95c2.61,2.64,3.92,5.78,3.92,9.42v20c0,3.6-1.31,6.72-3.92,9.36
		c-2.62,2.64-5.75,3.95-9.39,3.95H98.31c-3.65,0-6.78-1.31-9.39-3.92c-2.62-2.61-3.92-5.74-3.92-9.39v-20
		c0-3.69,1.31-6.84,3.94-9.45C91.56,19.47,94.68,18.16,98.31,18.16z M98.31,31.54v20c0,1.79,0.65,3.34,1.95,4.66
		c1.3,1.31,2.88,1.97,4.73,1.97c1.85,0,3.43-0.66,4.73-1.97c1.3-1.31,1.95-2.86,1.95-4.66v-20c0-1.83-0.66-3.41-1.98-4.72
		c-1.32-1.31-2.89-1.97-4.7-1.97c-1.83,0-3.41,0.66-4.72,1.97S98.31,29.7,98.31,31.54z"/>
	<path class="st0" d="M138.31,64.85V18.16h13.31v6.69c0.27-2.25,0.96-3.93,2.08-5.03c1.11-1.1,2.65-1.66,4.61-1.66h6.69
		c3.65,0,6.78,1.32,9.39,3.95c2.61,2.64,3.92,5.78,3.92,9.42v33.31h-13.31V31.54c0-1.83-0.66-3.41-1.98-4.72
		c-1.32-1.31-2.89-1.97-4.7-1.97c-1.83,0-3.41,0.66-4.72,1.97s-1.97,2.89-1.97,4.72v33.31H138.31z"/>
	<path class="st0" d="M198.31,4.85h13.31v13.31h6.69v6.69h-6.69v26.69c0,2.15,0.71,3.79,2.12,4.92c1.42,1.14,2.73,1.7,3.94,1.7h0.62
		v6.69h-6.69c-3.67,0-6.8-1.31-9.41-3.92c-2.6-2.61-3.91-5.74-3.91-9.39V24.85h-6.69v-6.69h6.69V4.85z"/>
	<path class="st0" d="M231.62,64.85v-60h13.31v20c0.27-2.25,0.96-3.93,2.08-5.03c1.11-1.1,2.65-1.66,4.61-1.66h6.69
		c3.65,0,6.78,1.32,9.39,3.95c2.61,2.64,3.92,5.78,3.92,9.42v33.31h-13.31V31.54c0-1.83-0.66-3.41-1.98-4.72
		c-1.32-1.31-2.89-1.97-4.7-1.97c-1.83,0-3.41,0.66-4.72,1.97s-1.97,2.89-1.97,4.72v33.31H231.62z"/>
	<path class="st0" d="M284.93,64.85v-60h13.31v60H284.93z"/>
	<path class="st0" d="M318.3,71.54c0.31,4.42,2.52,6.62,6.62,6.62h6.69c1.81,0,3.38-0.65,4.7-1.95c1.32-1.3,1.98-2.86,1.98-4.67
		V58.16c-0.52,4.46-2.75,6.69-6.69,6.69h-6.69c-3.65,0-6.78-1.31-9.39-3.92c-2.62-2.61-3.92-5.74-3.92-9.39V18.16h13.31v33.38
		c0,1.79,0.65,3.34,1.95,4.66c1.3,1.31,2.88,1.97,4.73,1.97c1.85,0,3.43-0.66,4.73-1.97c1.3-1.31,1.95-2.86,1.95-4.66V18.16h13.31
		v53.38c0,3.62-1.32,6.75-3.95,9.38c-2.64,2.62-5.76,3.94-9.36,3.94h-13.38c-7.85,0-12.29-4.44-13.31-13.31H318.3z"/>
	<path class="st1" d="M417.77,18.16h-6.62c-0.58-4.46-2.69-6.69-6.31-6.69c-2.33,0-4.09,0.56-5.28,1.69s-1.78,2.8-1.78,5.03
		c0,1.67,0.66,3.23,1.97,4.69l14.12,15.88c2.6,2.92,3.91,6.05,3.91,9.41v3.38c0,3.6-1.3,6.72-3.91,9.36
		c-2.6,2.64-5.74,3.95-9.41,3.95h-6.69c-4.42,0-7.74-1.11-9.97-3.34c-2.23-2.23-3.34-5.55-3.34-9.97h6.69
		c-0.04,0.46-0.06,0.82-0.06,1.09c0,1.81,0.7,3.19,2.09,4.12c1.4,0.94,2.93,1.41,4.59,1.41c2.38,0,4.08-0.57,5.12-1.72
		c1.04-1.15,1.56-2.81,1.56-5c0-1.69-0.66-3.25-1.97-4.69l-14.12-15.81c-2.6-2.9-3.91-6.03-3.91-9.41v-3.38
		c0-3.62,1.3-6.75,3.91-9.38c2.6-2.62,5.74-3.94,9.41-3.94h6.69C412.79,4.85,417.23,9.29,417.77,18.16z"/>
	<path class="st1" d="M431.15,18.16h13.31v6.69c0-2.25,0.56-3.93,1.69-5.03c1.12-1.1,2.79-1.66,5-1.66h6.69
		c3.65,0,6.78,1.32,9.39,3.95c2.61,2.64,3.92,5.78,3.92,9.42v20c0,3.65-1.31,6.78-3.92,9.39c-2.62,2.62-5.75,3.92-9.39,3.92h-13.38
		v13.31h-13.31V18.16z M444.46,58.16h6.69c1.81,0,3.38-0.65,4.7-1.95c1.32-1.3,1.98-2.86,1.98-4.67v-20c0-1.83-0.66-3.4-1.98-4.7
		c-1.32-1.3-2.89-1.95-4.7-1.95c-1.83-0.02-3.41,0.62-4.72,1.94s-1.97,2.89-1.97,4.72V58.16z"/>
	<path class="st1" d="M524.46,44.85h-26.69v6.69c0,1.79,0.65,3.34,1.95,4.66c1.3,1.31,2.88,1.97,4.73,1.97h6.69
		c4.42,0,6.62-2.21,6.62-6.62h6.69c-1.04,8.88-5.48,13.31-13.31,13.31h-13.38c-3.65,0-6.78-1.31-9.39-3.92
		c-2.62-2.61-3.92-5.74-3.92-9.39v-20c0-3.69,1.31-6.84,3.94-9.45c2.62-2.61,5.75-3.92,9.38-3.92h13.38c3.65,0,6.78,1.32,9.39,3.95
		c2.61,2.64,3.92,5.78,3.92,9.42V44.85z M497.77,38.16h13.38v-6.62c0-1.83-0.66-3.41-1.98-4.72c-1.32-1.31-2.89-1.97-4.7-1.97
		c-1.83,0-3.41,0.66-4.72,1.97s-1.97,2.89-1.97,4.72V38.16z"/>
	<path class="st1" d="M571.08,31.54h-6.62c-0.52-4.46-2.75-6.69-6.69-6.69c-1.83,0-3.41,0.66-4.72,1.97s-1.97,2.89-1.97,4.72v20
		c0,1.79,0.65,3.34,1.95,4.66c1.3,1.31,2.88,1.97,4.73,1.97c3.94,0,6.17-2.21,6.69-6.62h6.62c-0.54,8.88-4.98,13.31-13.31,13.31
		h-6.69c-3.65,0-6.78-1.31-9.39-3.92c-2.62-2.61-3.92-5.74-3.92-9.39v-20c0-3.69,1.31-6.84,3.94-9.45c2.62-2.61,5.75-3.92,9.38-3.92
		h6.69C566.15,18.16,570.58,22.62,571.08,31.54z"/>
	<path class="st1" d="M584.46,11.54V4.85h13.31v6.69H584.46z M584.46,64.85V18.16h13.31v46.69H584.46z"/>
	<path class="st1" d="M637.83,38.16v-6.62c0-1.83-0.66-3.41-1.98-4.72c-1.32-1.31-2.89-1.97-4.7-1.97h-6.69
		c-3.94,0-6.15,2.23-6.62,6.69h-6.69c1.02-8.92,5.46-13.38,13.31-13.38h13.38c3.65,0,6.78,1.32,9.39,3.95
		c2.61,2.64,3.92,5.78,3.92,9.42v33.31h-13.31v-6.69c-0.52,4.46-2.75,6.69-6.69,6.69h-6.69c-3.65,0-6.78-1.31-9.39-3.92
		c-2.62-2.61-3.92-5.74-3.92-9.39v-0.06c0-3.65,1.31-6.78,3.94-9.39c2.62-2.61,5.75-3.92,9.38-3.92H637.83z M637.83,44.85h-6.69
		c-1.83,0-3.41,0.65-4.72,1.95c-1.31,1.3-1.97,2.86-1.97,4.67v0.06c0,1.79,0.65,3.34,1.95,4.66c1.3,1.31,2.88,1.97,4.73,1.97
		c1.85,0,3.43-0.66,4.73-1.97c1.3-1.31,1.95-2.86,1.95-4.66V44.85z"/>
	<path class="st1" d="M664.46,64.85v-60h13.31v60H664.46z"/>
	<path class="st1" d="M724.45,31.54h-6.62c-0.58-4.46-2.69-6.69-6.31-6.69c-2.35,0-4.12,0.46-5.31,1.39
		c-1.19,0.93-1.78,2.31-1.78,4.14c0,1.92,3.24,4.6,9.72,8.06c5.27,2.83,8.31,5.18,9.11,7.05c0.8,1.87,1.2,3.85,1.2,5.95
		c0,3.71-1.31,6.87-3.92,9.48c-2.62,2.62-5.75,3.92-9.39,3.92h-6.69c-8.88,0-13.31-4.44-13.31-13.31h6.69
		c0.52,4.44,2.6,6.66,6.25,6.66c2.35,0,4.12-0.47,5.31-1.41s1.78-2.32,1.78-4.16c0-1.88-3.23-4.56-9.69-8.06
		c-5.29-2.81-8.34-5.16-9.14-7.03c-0.8-1.88-1.2-3.85-1.2-5.94c0-3.73,1.31-6.9,3.94-9.52c2.62-2.61,5.75-3.92,9.38-3.92h6.69
		C719.48,18.16,723.91,22.62,724.45,31.54z"/>
</g>
</svg>
