<?xml version="1.0" encoding="utf-8"?>
<!-- Generator: Adobe Illustrator 26.3.1, SVG Export Plug-In . SVG Version: 6.00 Build 0)  -->
<svg version="1.1" id="레이어_1" xmlns="http://www.w3.org/2000/svg" xmlns:xlink="http://www.w3.org/1999/xlink" x="0px"
	 y="0px" viewBox="0 0 132 130" style="enable-background:new 0 0 132 130;" xml:space="preserve">
<style type="text/css">
	.st0{fill:#EEDA23;}
	.st1{fill:#381A1A;}
</style>
<g>
	<path class="st0" d="M103,126.13H29.47c-13.75,0-25-11.25-25-25V27.59c0-13.75,11.25-25,25-25H103c13.75,0,25,11.25,25,25v73.53
		C128,114.88,116.75,126.13,103,126.13z"/>
	<path class="st1" d="M65.86,21.76c-26.34,0-47.69,16.88-47.69,37.7c0,13.55,9.05,25.43,22.62,32.08c-1,3.72-3.61,13.49-4.14,15.58
		c-0.65,2.59,0.95,2.56,2,1.86c0.82-0.55,13.07-8.87,18.35-12.47c2.87,0.42,5.83,0.65,8.85,0.65c26.34,0,47.69-16.88,47.69-37.7
		C113.56,38.64,92.2,21.76,65.86,21.76"/>
	<g>
		<path class="st0" d="M46.67,48.36H32.73c-1.31,0-2.37,1.06-2.37,2.37c0,1.31,1.06,2.37,2.37,2.37h4.53v16.71
			c0,0.61,0.25,1.2,0.68,1.64c0.43,0.43,1.02,0.68,1.63,0.68h0.51c0.61,0,1.2-0.25,1.63-0.68c0.43-0.43,0.68-1.03,0.68-1.64V53.1
			h4.28c1.31,0,2.37-1.06,2.37-2.37C49.05,49.42,47.99,48.36,46.67,48.36z"/>
		<path class="st0" d="M80.19,67.66H73.7V50.6c0-1.42-1.15-2.57-2.57-2.57c-1.42,0-2.57,1.15-2.57,2.57v18.39
			c0,0.14,0.02,0.28,0.04,0.41c-0.03,0.13-0.04,0.27-0.04,0.41c0,1.19,0.96,2.16,2.15,2.16h9.48c1.19,0,2.15-0.96,2.15-2.16
			C82.34,68.63,81.38,67.66,80.19,67.66z"/>
		<path class="st0" d="M100.91,68.45l-7.23-9.49l6.53-6.53c0.88-0.88,0.88-2.32,0-3.2c-0.88-0.88-2.32-0.88-3.2,0l-8.08,8.08v-6.7
			c0-1.42-1.15-2.57-2.57-2.57c-1.42,0-2.57,1.15-2.57,2.57v18.96c0,1.42,1.15,2.57,2.57,2.57c1.42,0,2.57-1.15,2.57-2.57v-5.85
			l1.47-1.47l6.84,8.97c0.76,1.02,2.21,1.22,3.22,0.46C101.47,70.91,101.68,69.46,100.91,68.45z"/>
		<path class="st0" d="M66.63,69.06l-6.95-19.01c0,0-0.02-0.02-0.02-0.02c-0.45-1.16-1.73-2-3.26-2c-1.7,0-3.1,1.04-3.38,2.39
			c-0.05,0.1-0.09,0.2-0.13,0.31l-6.83,18.33c-0.42,1.2,0.21,2.52,1.41,2.94c1.2,0.42,2.52-0.21,2.94-1.41l1.18-3.38h9.51l1.18,3.38
			c0.42,1.2,1.74,1.83,2.94,1.41C66.42,71.58,67.05,70.27,66.63,69.06z M53.1,62.91l3.2-9.12c0.04,0,0.07,0.01,0.1,0.01l3.19,9.11
			H53.1z"/>
	</g>
</g>
</svg>
