<?xml version="1.0" encoding="utf-8"?>
<!-- Generator: Adobe Illustrator 26.3.1, SVG Export Plug-In . SVG Version: 6.00 Build 0)  -->
<svg version="1.1" id="레이어_1" xmlns="http://www.w3.org/2000/svg" xmlns:xlink="http://www.w3.org/1999/xlink" x="0px"
	 y="0px" viewBox="0 0 132 130" style="enable-background:new 0 0 132 130;" xml:space="preserve">
<style type="text/css">
	.st0{fill:#E50A11;}
	.st1{fill:#FFFFFF;}
</style>
<g>
	<path class="st0" d="M126.65,33.75c-1.45-6.21-5.73-11.1-11.17-12.76c-9.85-3.02-49.34-3.02-49.34-3.02s-39.49,0-49.34,3.02
		c-5.43,1.66-9.71,6.55-11.17,12.76C3,45,3,68.48,3,68.48s0,23.48,2.64,34.74c1.45,6.21,5.73,11.1,11.17,12.76
		C26.65,119,66.14,119,66.14,119s39.49,0,49.34-3.02c5.43-1.66,9.71-6.55,11.17-12.76c2.64-11.26,2.64-34.74,2.64-34.74
		S129.29,45,126.65,33.75"/>
	<polygon class="st1" points="53.51,90.13 86.32,68.49 53.51,46.84 	"/>
</g>
</svg>
