<?xml version="1.0" encoding="utf-8"?>
<!-- Generator: Adobe Illustrator 25.4.6, SVG Export Plug-In . SVG Version: 6.00 Build 0)  -->
<svg version="1.1" id="레이어_1" xmlns="http://www.w3.org/2000/svg" xmlns:xlink="http://www.w3.org/1999/xlink" x="0px"
	 y="0px" viewBox="0 0 405 78" style="enable-background:new 0 0 405 78;" xml:space="preserve">
<style type="text/css">
	.st0{fill:#231815;}
</style>
<g>
	<path class="st0" d="M22,13.04c0,0.3-0.28,0.95-0.84,1.96c-0.25,0.48-0.5,1.81-0.74,4.01c-1.3,13.31-1.95,24.98-1.95,35.02
		c0,2.62,0.25,4.72,0.74,6.33c0.43,1.37,1.33,3.24,2.7,5.61c0.06,0.12,0.09,0.3,0.09,0.54c0,1.25-1.52,1.87-4.56,1.87h-0.84
		c-3.16-0.06-5.08-2.49-5.76-7.31c-0.87-5.88-1.3-13.99-1.3-24.33c0-2.44,0.05-6.1,0.14-11.01s0.14-8.6,0.14-11.09
		c0-1.37,0.74-2.67,2.23-3.92c1.49-1.25,2.94-1.87,4.37-1.87c1.12,0,2.33,0.45,3.63,1.34C21.35,11.08,22,12.03,22,13.04z"/>
	<path class="st0" d="M50.27,36.66c0,1.6-2.54,2.73-7.63,3.39c-0.12,1.31-0.18,4.28-0.18,8.91v5.88c0,1.19,0.19,2.94,0.56,5.26
		c0.37,2.32,0.56,4.04,0.56,5.17c0,0.95-0.5,1.8-1.49,2.54c-0.99,0.74-1.98,1.11-2.97,1.11c-1.55,0-2.85-1.28-3.91-3.83
		c-0.81-1.96-1.21-3.86-1.21-5.7V40.49c-2.85-0.41-4.49-0.68-4.93-0.8c-1.61-0.47-2.42-1.16-2.42-2.05c0-0.24,0.06-0.5,0.19-0.8
		c1.61-2.2,3.41-3.3,5.39-3.3c0.12,0,0.31,0,0.56,0c0.25,0.06,0.43,0.09,0.56,0.09c1.3,0,1.92-1.46,1.86-4.37v-6.51
		c-0.31-0.65-0.46-1.22-0.46-1.69c0-0.77,0.47-1.47,1.43-2.09c0.95-0.62,1.86-0.94,2.72-0.94c1.29,0,2.52,0.58,3.68,1.74
		c1.17,1.16,1.75,2.39,1.75,3.7c0,1.43-0.23,2.84-0.7,4.23c-0.47,1.4-0.67,2.84-0.6,4.32v0.36C47.85,32.85,50.27,34.28,50.27,36.66z
		"/>
	<path class="st0" d="M54.08,14.55c0-1.36,0.64-2.58,1.91-3.65c1.27-1.07,2.74-1.6,4.42-1.6c1.8,0,3.35,0.77,4.65,2.32
		c1.3,1.54,1.95,3.48,1.95,5.79c0,2.5-0.25,4.55-0.74,6.15c-0.5,1.6-1.36,3.15-2.6,4.63c-1.24,1.54-2.64,2.87-4.18,3.97
		c-1.55,1.1-2.94,1.65-4.18,1.65c-0.99-0.12-1.72-0.49-2.19-1.11c-0.46-0.62-0.36-1.35,0.33-2.18c1.24-0.65,2.4-1.45,3.49-2.41
		c1.08-0.95,1.87-2.17,2.37-3.65c0.31-0.83,0.42-1.74,0.33-2.72c-0.09-0.98-0.67-1.8-1.72-2.45c-1.05-0.65-1.95-1.31-2.7-1.96
		C54.45,16.67,54.08,15.74,54.08,14.55z"/>
	<path class="st0" d="M97.78,59.56c0,2.79-1.24,5.23-3.72,7.31c-2.73,2.26-6.38,3.39-10.97,3.39c-1.98,0.06-4.12-0.33-6.42-1.16
		c-7.44-2.67-11.16-4.84-11.16-6.51c0-2.61,1.95-3.92,5.86-3.92c0.56,0,1.15,0.03,1.77,0.09c0.19,1.78,1.67,3.21,4.46,4.28
		c2.42,0.95,4.74,1.34,6.97,1.16c1.8-0.12,2.7-0.74,2.7-1.87c0-0.18-0.05-0.45-0.14-0.8c-0.09-0.36-0.14-0.64-0.14-0.85
		c0-0.21-1.18-0.67-3.53-1.38c-2.67-0.77-4.15-1.22-4.46-1.34c-7.07-4.04-10.6-8.91-10.6-14.62c0-3.44,1.02-6.62,3.07-9.54
		c2.29-3.21,5.14-4.81,8.55-4.81c2.54,0,5.44,0.95,8.69,2.85c3.25,1.9,5.25,3.95,6,6.15c0.5,1.55,0.74,2.82,0.74,3.83
		c0,1.07-0.16,1.96-0.47,2.67c-0.37,0.89-0.74,1.78-1.12,2.67c-1.18,0.77-2.36,1.16-3.53,1.16c-0.62,0-1.66-0.37-3.11-1.11
		c-1.46-0.74-2.19-1.38-2.19-1.92c0-0.24,0.37-1.01,1.12-2.32c0.43-0.77,0.65-1.43,0.65-1.96c0-3.57-1.46-5.35-4.37-5.35
		c-1.73,0-3.07,1.07-4,3.21c-0.68,1.67-1.02,3.45-1.02,5.35c0,2.38,1.77,4.52,5.3,6.42c3.22,1.37,6.48,2.76,9.76,4.19
		C96.01,56.38,97.78,57.95,97.78,59.56z"/>
	<path class="st0" d="M160.35,59.81c0,3.63-2.2,6.43-6.6,8.39c-3.47,1.61-7.35,2.41-11.62,2.41c-3.9,0-8.49-0.83-13.76-2.49
		c-6.51-2.14-9.76-4.63-9.76-7.49c0-1.07,0.4-1.99,1.21-2.76c0.8-0.77,1.77-1.16,2.88-1.16c1.67,0,3.22,0.66,4.65,1.96
		c2.42,1.96,3.72,3.03,3.91,3.21c2.17,1.19,6.07,1.78,11.72,1.78c5.02,0,7.53-1.1,7.53-3.3c0-1.84-2.36-4.4-7.07-7.66
		c-3.29-2.02-6.57-4.04-9.86-6.06c-4.21-2.73-7.28-5.32-9.2-7.75c-2.54-3.21-3.81-6.89-3.81-11.05c0-5.23,1.67-9.89,5.02-13.99
		c3.59-4.51,8.06-6.77,13.39-6.77c4.59,0,8.46,1.2,11.62,3.61c3.16,2.41,5.18,5.78,6.04,10.11c0.19,1.66,0.56,4.13,1.12,7.4
		c0.25,0.95,0.37,1.66,0.37,2.14c0,2.14-0.37,3.95-1.12,5.44c-0.93,2.02-2.39,3.03-4.37,3.03c-1.12,0-2.19-0.49-3.21-1.48
		c-1.02-0.98-1.53-2.01-1.53-3.09c0-0.78,0.19-1.92,0.56-3.44c0.37-1.52,0.56-2.67,0.56-3.44c0-8.05-2.79-12.08-8.37-12.08
		c-3.1,0-5.7,1.27-7.81,3.79c-2.11,2.53-3.16,5.31-3.16,8.34c0,4.28,2.66,8.45,8,12.5c4.9,3.16,9.82,6.31,14.78,9.46
		C157.71,53,160.35,56.48,160.35,59.81z"/>
	<path class="st0" d="M194.57,36.73c0,1.84-0.23,4.61-0.7,8.31c-0.46,3.71-0.7,6.51-0.7,8.4c0,1.66,0.08,4.14,0.23,7.42
		c0.15,3.29,0.23,5.73,0.23,7.33c0,1.36-1.21,2.05-3.63,2.05c-2.48,0-4.06-1.13-4.74-3.39c-2.36,1.49-4.65,2.23-6.88,2.23
		c-1.8,0-3.84-0.46-6.14-1.38c-2.29-0.92-3.9-2.03-4.83-3.34c-1.8-2.49-2.7-6.51-2.7-12.03c0-1.9,0.06-5.23,0.19-9.98
		c0.19-4.22,0.25-7.51,0.19-9.89c1.88-1.31,3.44-1.96,4.69-1.96c3.01,0,4.51,1.4,4.51,4.19c0,0.95-0.16,2.38-0.46,4.28
		c-0.31,1.9-0.47,3.33-0.47,4.28v12.57c0,1.43,0.4,2.91,1.21,4.46c0.99,1.78,2.17,2.67,3.53,2.67c2.66,0,4.65-1.63,5.95-4.9
		c0.87-2.26,1.3-4.99,1.3-8.2V39.15c0-1.37-0.37-3.06-1.12-5.08c1.55-1.37,3.04-2.05,4.46-2.05c1.49,0,2.84,0.45,4.05,1.33
		C193.96,34.25,194.57,35.37,194.57,36.73z"/>
	<path class="st0" d="M247.65,68.38c-2.08,1.25-3.68,1.87-4.78,1.87c-0.8,0-2.02-0.42-3.68-1.25c0-0.95,0-2.58,0-4.9
		c0-2.08,0-3.71,0-4.9c0-15.8-1.35-23.7-4.06-23.7c-2.03,0-3.66,2.41-4.88,7.22c-0.92,3.51-1.38,6.74-1.38,9.71v8.2
		c0,0.42,0.16,1.02,0.47,1.83c0.31,0.8,0.46,1.41,0.46,1.83c0,0.95-0.53,1.8-1.58,2.54c-1.05,0.74-2.08,1.11-3.07,1.11
		c-1.05,0-2.11-0.5-3.16-1.52c-1.05-1.01-1.58-1.99-1.58-2.94V46.9c0-6.71-0.79-10.07-2.37-10.07c-0.25,0-0.79,0.57-1.61,1.69
		c-4.48,5.7-6.72,11.82-6.72,18.36c0,0.95,0.14,2.33,0.42,4.14c0.28,1.81,0.42,3.16,0.42,4.06c0,1.19-0.39,2.17-1.16,2.94
		c-0.78,0.77-1.78,1.16-3.02,1.16c-1.43,0-2.57-0.47-3.44-1.42c-0.31-0.41-0.68-1.81-1.12-4.18c-0.37-2.19-0.56-3.71-0.56-4.54
		V39.66c0-1.42,0.37-3.32,1.12-5.69c0.93-2.85,1.92-4.27,2.97-4.27c1.24,0,2.36,0.45,3.35,1.35c0.99,0.9,1.43,1.94,1.3,3.1
		c1.8-2.85,4.12-4.28,6.97-4.28c3.53,0,6.42,2.26,8.65,6.77c1.18-2.67,2.23-4.51,3.16-5.52c1.55-1.72,3.47-2.58,5.77-2.58
		c2.29,0,4.62,1.16,6.97,3.48c4.09,3.98,6.14,10.78,6.14,20.41V68.38z"/>
	<path class="st0" d="M302.42,68.38c-2.08,1.25-3.68,1.87-4.78,1.87c-0.8,0-2.02-0.42-3.68-1.25c0-0.95,0-2.58,0-4.9
		c0-2.08,0-3.71,0-4.9c0-15.8-1.35-23.7-4.06-23.7c-2.03,0-3.66,2.41-4.88,7.22c-0.92,3.51-1.38,6.74-1.38,9.71v8.2
		c0,0.42,0.16,1.02,0.47,1.83c0.31,0.8,0.46,1.41,0.46,1.83c0,0.95-0.53,1.8-1.58,2.54c-1.05,0.74-2.08,1.11-3.07,1.11
		c-1.05,0-2.11-0.5-3.16-1.52c-1.05-1.01-1.58-1.99-1.58-2.94V46.9c0-6.71-0.79-10.07-2.37-10.07c-0.25,0-0.79,0.57-1.61,1.69
		c-4.48,5.7-6.72,11.82-6.72,18.36c0,0.95,0.14,2.33,0.42,4.14c0.28,1.81,0.42,3.16,0.42,4.06c0,1.19-0.39,2.17-1.16,2.94
		c-0.78,0.77-1.78,1.16-3.02,1.16c-1.43,0-2.57-0.47-3.44-1.42c-0.31-0.41-0.68-1.81-1.12-4.18c-0.37-2.19-0.56-3.71-0.56-4.54
		V39.66c0-1.42,0.37-3.32,1.12-5.69c0.93-2.85,1.92-4.27,2.97-4.27c1.24,0,2.36,0.45,3.35,1.35c0.99,0.9,1.43,1.94,1.3,3.1
		c1.8-2.85,4.12-4.28,6.97-4.28c3.53,0,6.42,2.26,8.65,6.77c1.18-2.67,2.23-4.51,3.16-5.52c1.55-1.72,3.47-2.58,5.77-2.58
		c2.29,0,4.62,1.16,6.97,3.48c4.09,3.98,6.14,10.78,6.14,20.41V68.38z"/>
	<path class="st0" d="M339.79,60.72c0,2.97-2.11,5.29-6.32,6.95c-3.29,1.31-6.73,1.96-10.32,1.96c-9.55,0-14.32-5.2-14.32-15.6
		c0-4.28,1.08-9.03,3.25-14.26c2.66-6.42,5.89-9.63,9.67-9.63c3.41,0,7.08,1.46,11.02,4.37c3.94,2.91,5.9,5.94,5.9,9.09
		c0,3.92-1.83,7.04-5.49,9.36c-3.22,2.08-7.07,3.12-11.53,3.12c-0.87,0-2.26-0.5-4.18-1.51c0.25,5.65,1.98,8.47,5.21,8.47
		c2.73,0,5.41-0.74,8.04-2.23c2.63-1.49,4.32-2.23,5.07-2.23C338.46,58.58,339.79,59.29,339.79,60.72z M329.66,43.87
		c0-1.48-0.45-2.9-1.35-4.23c-0.9-1.34-2.09-2.01-3.58-2.01c-2.05,0-3.63,0.86-4.74,2.58c-0.93,1.49-1.39,3.24-1.39,5.26
		c0,1.13,0.4,2.05,1.21,2.76c0.8,0.71,1.83,1.07,3.07,1.07C327.4,49.31,329.66,47.5,329.66,43.87z"/>
	<path class="st0" d="M368.99,37.9c0,0.42-0.06,1.07-0.19,1.96c-1.3,1.78-2.67,2.67-4.09,2.67c-1.18,0-2.23-0.65-3.16-1.96
		c-0.12-2.67-1.12-4.01-2.97-4.01c-1.12,0-2.48,2.82-4.09,8.47c-0.74,2.49-1.12,5.97-1.12,10.43c0,4.22,0.2,6.77,0.61,7.66
		c0.46,1.13,0.69,1.9,0.69,2.32c0,1.01-0.48,1.83-1.43,2.45c-0.95,0.62-2.01,0.94-3.18,0.94c-3.31,0-4.97-1.48-4.97-4.46
		c0-0.3,0.08-0.71,0.23-1.25c0.15-0.53,0.23-0.92,0.23-1.16c0-3.03-0.16-7.53-0.46-13.5c-0.31-5.97-0.47-10.44-0.47-13.41
		c0-2.67,1.67-4.01,5.02-4.01c1.98,0,3.35,0.57,4.09,1.69c1.73-1.84,3.69-2.76,5.86-2.76c1.49,0,2.91,0.39,4.28,1.16
		c0.93,0.48,2.01,1.5,3.25,3.07C368.37,35.78,368.99,37.01,368.99,37.9z"/>
	<path class="st0" d="M391.3,62.77c0,4.52-2.7,6.77-8.09,6.77c-0.99,0-2.88-0.57-5.67-1.69c-0.74-1.31-1.12-2.55-1.12-3.74
		c0-3.44,2.2-5.17,6.6-5.17c1.61,0,3.25,0.3,4.93,0.89C390.19,60.6,391.3,61.58,391.3,62.77z M394,12.06c0,0.42-0.16,0.86-0.47,1.34
		c-0.43,0.65-0.71,1.07-0.84,1.25c-1.43,3.39-2.48,7.69-3.16,12.92c-0.31,1.84-0.78,6.3-1.4,13.37c0,0.3-0.08,0.88-0.23,1.74
		c-0.16,0.86-0.23,1.53-0.23,2c0,1.55,0.34,3.6,1.02,6.15c-0.37,0.48-0.99,1.13-1.86,1.96c-0.68,0.18-1.43,0.27-2.23,0.27
		c-1.24,0-2.39-0.3-3.44-0.89c-0.93-1.66-1.4-3.8-1.4-6.42c0-2.73,0.57-6.79,1.72-12.16c1.15-5.38,1.72-9.43,1.72-12.16
		c0-1.07-0.2-2.69-0.6-4.86c-0.4-2.17-0.6-3.79-0.6-4.86c0-0.59,0.06-1.1,0.19-1.51c1.55-1.25,3.44-1.87,5.67-1.87
		c1.3,0,2.6,0.3,3.91,0.89C393.26,9.98,394,10.93,394,12.06z"/>
</g>
</svg>
